<mxfile host="app.diagrams.net" modified="2023-11-11T08:28:51.866Z" agent="Mozilla/5.0 (Windows NT 10.0; Win64; x64) AppleWebKit/537.36 (KHTML, like Gecko) Chrome/119.0.0.0 Safari/537.36" version="22.1.0" etag="ehrfXBcLfiBIHZfE9Rfr" type="github">
  <diagram name="第 1 页" id="wRgRv8rGRIX4Yconnfli">
    <mxGraphModel>
      <root>
        <mxCell id="0" />
        <mxCell id="1" parent="0" />
      </root>
    </mxGraphModel>
  </diagram>
</mxfile>
